<?xml version="1.0" encoding="UTF-8"?><svg id="Layer_1" xmlns="http://www.w3.org/2000/svg" width="217.53" height="218.49" viewBox="0 0 217.53 218.49"><defs><style>.cls-1{fill:#089247;}.cls-1,.cls-2{stroke-width:0px;}.cls-2{fill:#fff;}</style></defs><ellipse class="cls-1" cx="95.61" cy="101.1" rx="95.61" ry="67.8"/><path class="cls-1" d="M78.16,174.67s112.02,13.98,120.67-80.52c0,0,42.07,32.09,0,72.91,0,0,2.29,24.25,16.78,34.31,0,0-34.31-3.25-49.98-15.08,0,0-54.27,17.6-87.47-11.61Z"/><path class="cls-1" d="M25.38,147.1s10.7,17.29-11.19,44.79c0,0,44.15-10.91,57.57-25.12,13.42-14.22-46.38-19.67-46.38-19.67Z"/><circle class="cls-2" cx="65" cy="105.17" r="10.87"/><circle class="cls-2" cx="96.05" cy="105.17" r="10.87"/><circle class="cls-2" cx="127.11" cy="105.17" r="10.87"/></svg>