<?xml version="1.0" encoding="UTF-8"?><svg id="Layer_1" xmlns="http://www.w3.org/2000/svg" width="234" height="63" viewBox="0 0 234 63"><defs><style>.cls-1{fill:none;stroke:#2b388f;stroke-miterlimit:10;stroke-width:5px;}.cls-2{fill:#f4f4f4;}.cls-2,.cls-3,.cls-4,.cls-5,.cls-6{stroke-width:0px;}.cls-3{fill:#2b388f;}.cls-4{fill:#009345;}.cls-5{fill:#fff;}.cls-6{fill:#be1e2d;}</style></defs><path class="cls-6" d="M34.93,1.34h168.97c16.53,0,29.94,13.42,29.94,29.94h0c0,16.53-13.42,29.94-29.94,29.94H34.93c-5.51,0-9.98-4.47-9.98-9.98V11.32c0-5.51,4.47-9.98,9.98-9.98Z"/><circle class="cls-4" cx="29.94" cy="31.28" r="29.94"/><path class="cls-5" d="M76.02,27.01h3.81c.75,0,1.32.03,1.69.09.37.06.7.19.99.39s.54.46.73.8.29.7.29,1.11c0,.45-.12.86-.36,1.23-.24.37-.57.65-.98.84.58.17,1.03.46,1.34.86s.47.89.47,1.44c0,.43-.1.85-.3,1.26-.2.41-.48.74-.83.98s-.78.4-1.29.45c-.32.04-1.09.06-2.32.07h-3.24v-9.53ZM77.95,28.59v2.2h1.26c.75,0,1.22-.01,1.4-.03.33-.04.59-.15.78-.34s.28-.44.28-.74-.08-.53-.24-.72c-.16-.18-.4-.29-.72-.33-.19-.02-.74-.03-1.64-.03h-1.1ZM77.95,32.38v2.55h1.78c.69,0,1.13-.02,1.32-.06.29-.05.52-.18.7-.38.18-.2.27-.47.27-.81,0-.29-.07-.53-.21-.73s-.34-.34-.6-.44-.83-.14-1.71-.14h-1.55Z"/><path class="cls-5" d="M94.22,36.54h-2.09l-.83-2.16h-3.81l-.79,2.16h-2.04l3.71-9.53h2.03l3.81,9.53ZM90.68,32.77l-1.31-3.54-1.29,3.54h2.6ZM89.5,25.87c.23-.06.35-.16.35-.3,0-.1-.06-.18-.18-.25-.18-.1-.47-.15-.86-.15-.13,0-.34,0-.61.03l-.07-.66c.17-.04.48-.05.94-.05.53,0,.97.09,1.31.26.37.18.56.44.57.76.02.45-.38.73-1.18.83v.33h-.73v-.71c.25-.03.41-.05.47-.07Z"/><path class="cls-5" d="M94.85,31.83c0-.97.15-1.78.44-2.44.22-.48.51-.92.89-1.31.37-.39.79-.67,1.23-.86.59-.25,1.28-.38,2.05-.38,1.4,0,2.53.43,3.37,1.31.84.87,1.26,2.08,1.26,3.63s-.42,2.74-1.25,3.61c-.84.87-1.95,1.3-3.35,1.3s-2.54-.43-3.38-1.3-1.25-2.05-1.25-3.57ZM96.83,31.77c0,1.08.25,1.9.75,2.45s1.13.83,1.9.83,1.4-.28,1.89-.83c.49-.55.74-1.38.74-2.49s-.24-1.91-.72-2.44-1.11-.81-1.91-.81-1.43.27-1.92.82-.73,1.36-.73,2.46Z"/><path class="cls-5" d="M109.29,36.54v-9.53h1.92v3.75h3.77v-3.75h1.92v9.53h-1.92v-4.17h-3.77v4.17h-1.92Z"/><path class="cls-5" d="M127.49,36.54h-2.09l-.83-2.16h-3.81l-.79,2.16h-2.04l3.71-9.53h2.03l3.81,9.53ZM123.72,26.46h-1.15l-1.79-1.94h2.05l.9,1.94ZM123.95,32.77l-1.31-3.54-1.29,3.54h2.6Z"/><path class="cls-5" d="M128.53,36.54v-9.53h1.87l3.9,6.36v-6.36h1.79v9.53h-1.93l-3.84-6.21v6.21h-1.79Z"/><path class="cls-5" d="M138.13,36.54v-9.53h1.92v3.75h3.77v-3.75h1.92v9.53h-1.92v-4.17h-3.77v4.17h-1.92Z"/><path class="cls-5" d="M153.57,36.54v-7.92h-2.83v-1.61h7.57v1.61h-2.82v7.92h-1.92Z"/><path class="cls-5" d="M168.15,36.54h-2.09l-.83-2.16h-3.81l-.79,2.16h-2.04l3.71-9.53h2.03l3.81,9.53ZM164.61,32.77l-1.31-3.54-1.29,3.54h2.6ZM162.41,39.14v-1.83h1.83v1.83h-1.83Z"/><path class="cls-5" d="M169.11,36.54v-9.53h1.92v9.53h-1.92Z"/><path class="cls-5" d="M176.58,36.54v-9.53h1.87l3.9,6.36v-6.36h1.79v9.53h-1.93l-3.84-6.21v6.21h-1.79Z"/><path class="cls-5" d="M186.18,36.54v-9.53h1.92v3.75h3.77v-3.75h1.92v9.53h-1.92v-4.17h-3.77v4.17h-1.92Z"/><path class="cls-5" d="M204.38,36.54h-2.09l-.83-2.16h-3.81l-.79,2.16h-2.04l3.71-9.53h2.03l3.81,9.53ZM200.61,26.46h-1.15l-1.79-1.94h2.05l.9,1.94ZM200.84,32.77l-1.31-3.54-1.29,3.54h2.6Z"/><path class="cls-3" d="M47.13,28.43l-2.24-.17c-.37-.03-.68-.29-.78-.65-.34-1.33-.87-2.59-1.56-3.75-.19-.32-.16-.73.09-1.02l1.45-1.66c.3-.34.29-.86-.03-1.19l-.89-.91-.87-.88-.89-.91c-.32-.33-.84-.35-1.19-.06l-1.72,1.44c-.29.24-.69.27-1.01.08-1.24-.75-2.6-1.32-4.04-1.68-.36-.09-.63-.4-.66-.78l-.17-2.19c-.04-.45-.42-.81-.87-.81h-3.78c-.46,0-.84.35-.87.81l-.17,2.23c-.03.37-.29.68-.65.77-1.35.35-2.62.89-3.8,1.58-.32.19-.74.15-1.02-.09l-1.66-1.44c-.34-.3-.86-.29-1.19.03l-.91.89-.88.87-.91.89c-.33.32-.35.84-.05,1.19l1.45,1.72c.24.29.27.69.08,1.01-.74,1.24-1.31,2.59-1.66,4.03-.09.36-.4.63-.78.66l-2.2.18c-.46.04-.81.42-.81.87v2.51s0,1.27,0,1.27c0,.46.35.84.81.87l2.24.17c.37.03.68.29.78.65.37,1.42.94,2.76,1.7,3.98.2.32.17.73-.08,1.02l-1.42,1.68c-.3.35-.27.87.05,1.19l.91.89.88.87.91.89c.33.32.84.33,1.19.03l1.69-1.47c.28-.25.69-.29,1.01-.1,1.25.72,2.63,1.27,4.09,1.6.36.08.64.39.67.77l.21,2.19c.04.45.43.8.89.79l1.27-.02,1.24-.03,1.27-.02c.46-.01.83-.37.86-.83l.13-2.24c.02-.37.28-.69.64-.79,1.3-.36,2.53-.9,3.66-1.58.32-.2.73-.17,1.02.08l1.68,1.42c.35.3.87.27,1.19-.05l.89-.9.88-.88.89-.9c.32-.32.34-.84.04-1.19l-1.47-1.7c-.24-.28-.28-.69-.09-1.01.7-1.19,1.23-2.49,1.57-3.87.09-.36.4-.63.78-.66l2.2-.17c.46-.04.81-.42.81-.88v-3.77c0-.46-.35-.84-.81-.87ZM29.95,39.44c-4.51,0-8.17-3.65-8.17-8.16s3.66-8.15,8.17-8.15,8.17,3.65,8.17,8.15-3.66,8.16-8.17,8.16Z"/><path class="cls-2" d="M29.95,19.62c-6.45,0-11.69,5.22-11.69,11.66s5.23,11.67,11.69,11.67,11.68-5.22,11.68-11.67-5.23-11.66-11.68-11.66ZM29.95,39.44c-4.51,0-8.17-3.65-8.17-8.16s3.66-8.15,8.17-8.15,8.17,3.65,8.17,8.15-3.66,8.16-8.17,8.16Z"/><ellipse class="cls-1" cx="29.94" cy="31.28" rx="8.17" ry="8.15"/></svg>