<?xml version="1.0" encoding="UTF-8"?><svg id="Layer_1" xmlns="http://www.w3.org/2000/svg" width="217.53" height="218.49" viewBox="0 0 217.53 218.49"><defs><style>.cls-1{fill:#121212;}.cls-1,.cls-2,.cls-3{stroke-width:0px;}.cls-2{fill:#000;}.cls-4,.cls-5{stroke:#000;}.cls-4,.cls-5,.cls-6,.cls-7,.cls-8,.cls-9{stroke-miterlimit:10;}.cls-4,.cls-8,.cls-3,.cls-9{fill:#fff;}.cls-5,.cls-6,.cls-7{fill:none;}.cls-6{stroke:#757576;}.cls-7{stroke:#fff;}.cls-8{stroke:#121212;}.cls-9{stroke:#020202;}</style></defs><polygon class="cls-1" points="67.97 131.32 45.34 197.37 60.57 212.35 89.37 136.9 67.97 131.32"/><polygon class="cls-1" points="71.89 187.37 97.18 175.94 102.9 194.44 62.36 212.35 71.89 187.37"/><path class="cls-8" d="M43.07,28.9s-4.21,1.39-3.96,4.93,55.77,186.38,55.77,186.38l94.03-48.27s5.93-2.03,1.53-13.99c-5.08-13.82-41.11-151.73-41.11-151.73,0,0-1.24-2.99-7.18-1.74-5.94,1.25-99.07,24.42-99.07,24.42Z"/><path class="cls-2" d="M49.31,26.72s-4.21,1.38-3.96,4.9,55.77,185.28,55.77,185.28l94.03-47.98s5.93-2.02,1.53-13.91c-5.08-13.74-41.11-150.83-41.11-150.83,0,0-1.24-2.97-7.18-1.73-5.94,1.24-99.07,24.27-99.07,24.27Z"/><path class="cls-7" d="M65.53,33.9l79.5-20.06s6.32-2.97,8.17,5.2,38.53,135.36,38.53,135.36c0,0,2.4,5.13-5.83,10.27-7.43,4.64-57.79,27.67-72.27,34.27-4.87,2.22-10.67.22-12.99-4.6-.04-.09-.08-.17-.12-.26-4.09-8.73-41.98-149.16-41.98-149.16,0,0-2.13-8.72,7-11.02Z"/><path class="cls-7" d="M74.91,46.66l62.43-16.55s5.02-2.39,6.79,3.5,20.77,74.74,20.77,74.74c0,0,2.11,3.66-4.4,7.7-5.87,3.64-44.87,18.83-56.4,24.16-3.87,1.79-8.64.54-10.68-2.89-.04-.06-.07-.12-.11-.18-3.59-6.22-23.73-82.17-23.73-82.17,0,0-2.01-6.28,5.32-8.29Z"/><path class="cls-9" d="M164.82,111.38c-.54.97-1.76,2.15-4.35,3.32-5.72,2.6-45.46,20.25-56.62,23.95-3.74,1.25-8.22.13-10.01-2.58-.03-.04-.06-.1-.09-.15-.44-.67-1.18-2.68-2.14-5.63l1.59-22.9,33.93-11.89,37.69,15.87Z"/><path class="cls-4" d="M164.82,111.38l-37.69-15.87-10.9-35.17,18.95-27.47,3.55-.95s4.87-1.67,6.3,2.91c1.43,4.58,19.93,74.12,19.93,74.12,0,0,.65,1-.15,2.43Z"/><path class="cls-9" d="M135.18,32.86l-18.95,27.47-32.81,10.65-11.29-10.93c-.84-3.22-1.34-5.12-1.34-5.12,0,0-1.64-4.89,5.38-6.17l59-15.9Z"/><path class="cls-9" d="M93.21,107.39l-1.59,22.9c-4.96-15.25-15.71-55.86-19.48-70.24l11.29,10.93,9.78,36.41Z"/><polygon class="cls-5" points="127.14 95.5 93.21 107.39 83.43 70.99 116.24 60.33 127.14 95.5"/><line class="cls-6" x1="72.14" y1="60.06" x2="72.12" y2="60.04"/><rect class="cls-3" x="87.33" y="73.81" width="3.52" height="6.36" transform="translate(-18.51 29.17) rotate(-16.87)"/><rect class="cls-3" x="91.71" y="72.48" width="3.52" height="6.36" transform="translate(-17.94 30.39) rotate(-16.87)"/><rect class="cls-3" x="96.09" y="71.15" width="3.52" height="6.36" transform="translate(-17.36 31.6) rotate(-16.87)"/><rect class="cls-3" x="100.47" y="69.82" width="3.52" height="6.36" transform="translate(-16.79 32.82) rotate(-16.87)"/><rect class="cls-3" x="104.85" y="68.49" width="3.52" height="6.36" transform="translate(-16.21 34.03) rotate(-16.87)"/><rect class="cls-3" x="109.23" y="67.16" width="3.52" height="6.36" transform="translate(-15.64 35.24) rotate(-16.87)"/><rect class="cls-3" x="113.61" y="65.83" width="3.52" height="6.36" transform="translate(-15.06 36.46) rotate(-16.87)"/><rect class="cls-3" x="91.13" y="85.33" width="3.52" height="6.36" transform="translate(-21.69 30.77) rotate(-16.87)"/><rect class="cls-3" x="95.51" y="84" width="3.52" height="6.36" transform="translate(-21.12 31.99) rotate(-16.87)"/><rect class="cls-3" x="99.89" y="82.67" width="3.52" height="6.36" transform="translate(-20.54 33.2) rotate(-16.87)"/><rect class="cls-3" x="104.27" y="81.35" width="3.52" height="6.36" transform="translate(-19.97 34.42) rotate(-16.87)"/><rect class="cls-3" x="108.65" y="80.02" width="3.52" height="6.36" transform="translate(-19.39 35.63) rotate(-16.87)"/><rect class="cls-3" x="113.03" y="78.69" width="3.52" height="6.36" transform="translate(-18.82 36.84) rotate(-16.87)"/><rect class="cls-3" x="117.41" y="77.36" width="3.52" height="6.36" transform="translate(-18.25 38.06) rotate(-16.87)"/><rect class="cls-3" x="94.6" y="97.89" width="3.52" height="6.36" transform="translate(-27.84 37.24) rotate(-19.17)"/><rect class="cls-3" x="98.92" y="96.38" width="3.52" height="6.36" transform="translate(-27.11 38.58) rotate(-19.17)"/><rect class="cls-3" x="103.25" y="94.88" width="3.52" height="6.36" transform="translate(-26.38 39.92) rotate(-19.17)"/><rect class="cls-3" x="107.57" y="93.38" width="3.52" height="6.36" transform="translate(-25.64 41.25) rotate(-19.17)"/><rect class="cls-3" x="111.9" y="91.88" width="3.52" height="6.36" transform="translate(-24.91 42.59) rotate(-19.17)"/><rect class="cls-3" x="116.22" y="90.37" width="3.52" height="6.36" transform="translate(-24.18 43.93) rotate(-19.17)"/><rect class="cls-3" x="120.55" y="88.87" width="3.52" height="6.36" transform="translate(-23.44 45.26) rotate(-19.17)"/></svg>