<?xml version="1.0" encoding="UTF-8"?><svg id="Layer_1" xmlns="http://www.w3.org/2000/svg" width="217.53" height="218.49" viewBox="0 0 217.53 218.49"><defs><style>.cls-1{fill:#089247;}.cls-1,.cls-2{stroke-width:0px;}.cls-2{fill:#fff;}</style></defs><path class="cls-1" d="M78.51,9.48H25.94S2.08,15.01,2.08,33.34v151.47s5.19,24.21,29.05,24.21h159.08s25.24-4.5,25.24-28.36v-29.74s-50.83,56.02-124.84,26.97c0,0-35.62,12.8-53.6,5.88,0,0,20.4-8.3,21.44-24.9,0,0-81.44-81.61,20.06-149.39Z"/><path class="cls-2" d="M78.51,9.48h129.08s7.87-.61,7.87,10.94v130.5s-48.37,55.24-124.84,26.97c0,0-34.71,12.88-53.6,5.88,0,0,21.48-9.08,21.44-24.9,0,0-82-81.87,20.06-149.39Z"/><path class="cls-1" d="M64.63,67.4h27.46c1.86,0,3.71.55,5.15,1.72,1.8,1.46,3.17,3.91.41,7.62-5.01,6.74-24.73,30.6-24.73,30.6h21.06c2.45,0,4.8,1.3,5.87,3.5.72,1.48.79,3.22-1.16,4.76-1.26,1-2.86,1.46-4.47,1.46h-31c-.96,0-1.92-.18-2.77-.62-1.55-.81-3.27-2.63-2.04-6.69.47-1.54,1.28-2.95,2.28-4.2l22.49-28.17h-18.21c-2.26,0-4.44-1.1-5.57-3.05-.71-1.23-.97-2.75.15-4.4s3.08-2.54,5.08-2.54Z"/><ellipse class="cls-1" cx="117" cy="98.49" rx="17.72" ry="19.08"/><path class="cls-1" d="M128.59,98.49c0-10.54-2.27-19.08,4.62-19.08,6.27,0,5.98,8.54,5.98,19.08s.49,19.08-5.98,19.08c-7.28,0-4.62-8.54-4.62-19.08Z"/><ellipse class="cls-2" cx="119.33" cy="98.49" rx="7.9" ry="9.42"/><rect class="cls-1" x="144.17" y="63.43" width="11.76" height="54.14" rx="3.81" ry="3.81"/><circle class="cls-1" cx="179.06" cy="98.72" r="20.02"/><ellipse class="cls-2" cx="179.53" cy="98.72" rx="8.04" ry="9.66"/></svg>