<?xml version="1.0" encoding="UTF-8"?><svg id="Layer_1" xmlns="http://www.w3.org/2000/svg" width="423.02" height="63" viewBox="0 0 423.02 63"><defs><style>.cls-1{fill:#009345;}.cls-1,.cls-2,.cls-3{stroke-width:0px;}.cls-4{fill:none;}.cls-4,.cls-5,.cls-6{stroke:#231f20;stroke-miterlimit:10;stroke-width:.25px;}.cls-2{fill:#fff;}.cls-3{fill:#be1e2d;}.cls-5{fill:#f4f4f4;}.cls-6{fill:#2b388f;}</style></defs><path class="cls-3" d="M36.46,0h176.34C230.04,0,244.05,14,244.05,31.25h0c0,17.25-14,31.25-31.25,31.25H36.46c-5.75,0-10.42-4.67-10.42-10.42V10.42C26.04,4.67,30.71,0,36.46,0Z"/><circle class="cls-1" cx="31.25" cy="31.25" r="31.25"/><path class="cls-6" d="M44.04,29.12l-1.67-.13c-.28-.02-.51-.22-.58-.48-.26-1-.65-1.93-1.16-2.79-.14-.24-.12-.55.07-.76l1.08-1.24c.23-.26.21-.64-.02-.89l-.66-.68-.65-.66-.66-.68c-.24-.24-.62-.26-.89-.05l-1.28,1.08c-.21.18-.52.2-.76.06-.92-.56-1.94-.98-3.02-1.25-.27-.07-.47-.3-.49-.58l-.13-1.64c-.03-.34-.31-.6-.65-.6h-2.82c-.34,0-.63.26-.65.6l-.13,1.67c-.02.28-.22.51-.49.58-1.01.26-1.96.66-2.83,1.18-.24.14-.55.12-.76-.07l-1.24-1.08c-.26-.22-.64-.21-.89.03l-.68.66-.66.65-.68.66c-.24.24-.26.63-.04.89l1.08,1.28c.18.21.2.52.06.75-.55.92-.98,1.93-1.24,3.01-.07.27-.3.47-.58.49l-1.64.13c-.34.03-.6.31-.6.65v1.87s0,.94,0,.94c0,.34.26.63.6.65l1.67.13c.28.02.51.21.58.48.27,1.06.7,2.06,1.27,2.97.15.24.12.54-.06.76l-1.06,1.26c-.22.26-.2.65.04.88l.68.66.66.65.68.66c.24.24.63.25.89.03l1.26-1.1c.21-.18.51-.21.76-.07.94.54,1.96.95,3.05,1.19.27.06.48.29.5.57l.16,1.64c.03.34.32.6.66.59l.95-.02.93-.02.95-.02c.34,0,.62-.27.64-.62l.1-1.67c.02-.28.21-.52.48-.59.97-.27,1.89-.67,2.73-1.18.24-.15.55-.12.76.06l1.25,1.06c.26.22.65.2.89-.04l.67-.67.65-.66.67-.67c.24-.24.25-.63.03-.88l-1.09-1.27c-.18-.21-.21-.52-.07-.75.52-.89.92-1.86,1.17-2.88.07-.27.3-.47.58-.49l1.64-.13c.34-.03.6-.31.6-.65v-2.81c0-.34-.26-.63-.6-.65ZM31.22,37.34c-3.37,0-6.1-2.72-6.1-6.09s2.73-6.08,6.1-6.08,6.09,2.72,6.09,6.08-2.73,6.09-6.09,6.09Z"/><path class="cls-5" d="M31.22,22.55c-4.81,0-8.72,3.89-8.72,8.7s3.9,8.7,8.72,8.7,8.72-3.9,8.72-8.7-3.9-8.7-8.72-8.7ZM31.22,37.33c-3.37,0-6.1-2.72-6.1-6.09s2.73-6.08,6.1-6.08,6.09,2.72,6.09,6.08-2.73,6.09-6.09,6.09Z"/><ellipse class="cls-4" cx="31.21" cy="31.25" rx="6.09" ry="6.08"/><path class="cls-2" d="M79.34,26.79h3.97c.79,0,1.37.03,1.76.1s.73.2,1.04.41c.3.21.56.49.76.83s.3.73.3,1.16c0,.47-.12.89-.38,1.28-.25.39-.59.68-1.02.88.61.18,1.07.48,1.4.9.33.42.49.92.49,1.5,0,.45-.1.89-.31,1.32-.21.43-.5.77-.86,1.02-.36.26-.81.41-1.35.47-.33.04-1.14.06-2.42.07h-3.38v-9.94ZM81.35,28.44v2.3h1.32c.78,0,1.27-.01,1.46-.03.34-.04.61-.16.81-.36s.29-.46.29-.78-.08-.56-.25-.75c-.17-.19-.42-.31-.76-.35-.2-.02-.77-.03-1.72-.03h-1.15ZM81.35,32.4v2.66h1.86c.72,0,1.18-.02,1.38-.06.3-.05.54-.19.73-.4s.28-.49.28-.84c0-.3-.07-.55-.22-.76s-.35-.36-.63-.46c-.27-.09-.87-.14-1.78-.14h-1.62Z"/><path class="cls-2" d="M98.33,36.73h-2.18l-.87-2.26h-3.97l-.82,2.26h-2.13l3.87-9.94h2.12l3.98,9.94ZM94.63,32.8l-1.37-3.69-1.34,3.69h2.71ZM93.41,25.6c.24-.06.36-.16.37-.31,0-.1-.06-.19-.19-.26-.19-.1-.49-.16-.9-.16-.14,0-.35,0-.64.03l-.08-.69c.18-.04.5-.05.98-.05.56,0,1.01.09,1.36.27.39.19.59.45.6.79.02.47-.39.76-1.23.86v.34h-.76v-.75c.26-.03.42-.05.5-.08Z"/><path class="cls-2" d="M98.99,31.82c0-1.01.15-1.86.45-2.55.23-.51.54-.96.93-1.36.39-.4.82-.7,1.29-.89.62-.26,1.33-.39,2.14-.39,1.46,0,2.64.45,3.52,1.36.88.91,1.32,2.17,1.32,3.79s-.44,2.86-1.31,3.77c-.87.91-2.04,1.36-3.5,1.36s-2.65-.45-3.53-1.35c-.87-.9-1.31-2.14-1.31-3.73ZM101.05,31.75c0,1.13.26,1.98.78,2.56.52.58,1.18.87,1.98.87s1.46-.29,1.97-.87c.51-.58.77-1.44.77-2.59s-.25-1.99-.75-2.55c-.5-.56-1.16-.84-1.99-.84s-1.49.28-2,.85c-.51.57-.76,1.42-.76,2.57Z"/><path class="cls-2" d="M114.06,36.73v-9.94h2.01v3.91h3.93v-3.91h2.01v9.94h-2.01v-4.35h-3.93v4.35h-2.01Z"/><path class="cls-2" d="M133.05,36.73h-2.18l-.87-2.26h-3.97l-.82,2.26h-2.13l3.87-9.94h2.12l3.98,9.94ZM129.12,26.22h-1.2l-1.87-2.03h2.14l.94,2.03ZM129.35,32.8l-1.37-3.69-1.34,3.69h2.71Z"/><path class="cls-2" d="M134.14,36.73v-9.94h1.95l4.07,6.64v-6.64h1.87v9.94h-2.01l-4.01-6.48v6.48h-1.86Z"/><path class="cls-2" d="M144.15,36.73v-9.94h2.01v3.91h3.93v-3.91h2.01v9.94h-2.01v-4.35h-3.93v4.35h-2.01Z"/><path class="cls-2" d="M160.27,36.73v-8.26h-2.95v-1.68h7.9v1.68h-2.94v8.26h-2.01Z"/><path class="cls-2" d="M175.48,36.73h-2.18l-.87-2.26h-3.97l-.82,2.26h-2.13l3.87-9.94h2.12l3.98,9.94ZM171.79,32.8l-1.37-3.69-1.34,3.69h2.71ZM169.49,39.45v-1.91h1.91v1.91h-1.91Z"/><path class="cls-2" d="M176.49,36.73v-9.94h2.01v9.94h-2.01Z"/><path class="cls-2" d="M184.28,36.73v-9.94h1.95l4.07,6.64v-6.64h1.87v9.94h-2.01l-4.01-6.48v6.48h-1.86Z"/><path class="cls-2" d="M194.3,36.73v-9.94h2.01v3.91h3.93v-3.91h2.01v9.94h-2.01v-4.35h-3.93v4.35h-2.01Z"/><path class="cls-2" d="M213.29,36.73h-2.18l-.87-2.26h-3.97l-.82,2.26h-2.13l3.87-9.94h2.12l3.98,9.94ZM209.36,26.22h-1.2l-1.87-2.03h2.14l.94,2.03ZM209.59,32.8l-1.37-3.69-1.34,3.69h2.71Z"/></svg>