<?xml version="1.0" encoding="UTF-8"?><svg id="Layer_1" xmlns="http://www.w3.org/2000/svg" width="217.53" height="218.49" viewBox="0 0 217.53 218.49"><defs><style>.cls-1{fill:#ed2024;stroke-width:0px;}</style></defs><path class="cls-1" d="M109.68,216.85c-59.33,0-107.6-48.27-107.6-107.6S50.35,1.65,109.68,1.65s107.6,48.27,107.6,107.6-48.27,107.6-107.6,107.6ZM109.68,11.82C55.96,11.82,12.25,55.53,12.25,109.25s43.71,97.43,97.43,97.43,97.43-43.71,97.43-97.43S163.4,11.82,109.68,11.82Z"/><path class="cls-1" d="M80.88,64.47l11.96,23.1s2.06,4.26-1.24,6.88c-3.3,2.61-10.73,8.53-10.73,8.53,0,0,17.19,30.39,34.38,34.24l8.25-10.31s3.16-3.58,7.01-1.51l22.42,11.83s4.81,3.44,2.2,7.43l-10.73,16.78s-3.16,4.13-9.49,3.16c0,0-62.07-6.65-79.67-77.43,0,0-2.8-10.59,3.25-13.89l14.99-10.04s5.13-3.1,7.38,1.24Z"/><path class="cls-1" d="M113.42,88.2c4.54,1.5,15.83,6.49,17.01,19.35.14,1.48-.44,3.01-1.69,3.82-.74.48-1.73.8-3.04.63-1.87-.24-3.4-1.59-4.12-3.33-1.22-2.97-4.27-8.45-10.81-11.21-1.62-.68-2.97-1.89-3.64-3.51-.74-1.77-.65-3.98,1.61-5.32,1.4-.84,3.13-.94,4.69-.42Z"/><path class="cls-1" d="M114.35,71.25c6.8,1.29,28.33,7.5,33.49,34.67.29,1.55-.22,3.21-1.45,4.19-.67.53-1.58.93-2.81.93-2.53,0-4.67-1.85-5.34-4.29-1.84-6.64-8.14-23.05-26.17-26.33-2.09-.38-3.86-1.89-4.31-3.97-.31-1.42-.05-3.01,1.73-4.26,1.4-.98,3.18-1.27,4.86-.95Z"/><path class="cls-1" d="M115.55,54.17c8.56,1.71,41.32,10.81,49.29,50.91.31,1.55-.19,3.23-1.43,4.22-.56.45-1.29.8-2.23.9-2.75.29-5.23-1.7-5.91-4.39-2.37-9.36-12.04-38.18-41.92-42.55-2.11-.31-3.93-1.83-4.38-3.92-.31-1.42-.05-3.01,1.73-4.26,1.4-.98,3.17-1.25,4.84-.92Z"/></svg>