<?xml version="1.0" encoding="UTF-8"?><svg id="Layer_1" xmlns="http://www.w3.org/2000/svg" viewBox="0 0 909.02 126"><defs><style>.cls-1,.cls-2,.cls-3,.cls-4{stroke-width:0px;}.cls-1,.cls-5{fill:#000;}.cls-6{fill:#231f20;}.cls-6,.cls-7,.cls-8,.cls-9,.cls-10,.cls-5,.cls-11{stroke-miterlimit:10;}.cls-6,.cls-7,.cls-8,.cls-9,.cls-5{stroke-width:3px;}.cls-6,.cls-8,.cls-10,.cls-5,.cls-11{stroke:#fff;}.cls-2,.cls-8{fill:#ec1c24;}.cls-7,.cls-9{stroke:#009345;}.cls-7,.cls-4,.cls-10{fill:#fff;}.cls-3{fill:#009345;}.cls-9{fill:none;}.cls-11{fill:#fffdfe;}</style></defs><polygon class="cls-1" points="909.02 125.64 361.56 125.64 .02 125.64 .02 -.57 330.57 -.57 878.03 -.57 909.02 125.64"/><polygon class="cls-3" points="582.99 -.57 877.47 -.57 909.02 125.64 614.54 125.64 582.99 -.57"/><polygon class="cls-2" points="320.06 -.57 351.62 125.64 614.54 125.64 582.99 -.57 320.06 -.57"/><path class="cls-5" d="M12.95,18h76.29c2.17,0,3.93,1.76,3.93,3.93v69.69H12.95c-2.17,0-3.93-1.76-3.93-3.93V21.93c0-2.17,1.76-3.93,3.93-3.93Z"/><path class="cls-5" d="M141.08,91.62h-47.92v-52.59h29.05c1.57,0,3.03.78,3.9,2.09l18.86,28.29c.51.77.78,1.67.78,2.59v14.96c0,2.57-2.09,4.66-4.66,4.66Z"/><path class="cls-5" d="M142.61,65.89h-35.39c-1.96,0-3.54-1.59-3.54-3.54v-14.13c0-1.96,1.59-3.54,3.54-3.54h21.24l14.15,21.22Z"/><circle class="cls-5" cx="124.71" cy="91.62" r="10.52"/><path class="cls-10" d="M122.74,91.62c0,1.03.83,1.86,1.86,1.86s1.86-.83,1.86-1.86-.83-1.86-1.86-1.86-1.86.83-1.86,1.86Z"/><circle class="cls-5" cx="40.57" cy="91.62" r="10.52"/><path class="cls-11" d="M38.6,91.62c0,1.03.83,1.86,1.86,1.86s1.86-.83,1.86-1.86-.83-1.86-1.86-1.86-1.86.83-1.86,1.86Z"/><line class="cls-6" x1="9.02" y1="70.59" x2="93.16" y2="70.59"/><path class="cls-4" d="M21.65,55.77v-16.73h11.47v2.83h-8.09v3.96h6.98v2.83h-6.98v7.11h-3.38Z"/><path class="cls-4" d="M35.91,55.77v-16.73h7.11c1.79,0,3.09.15,3.9.45.81.3,1.46.83,1.95,1.6s.73,1.65.73,2.64c0,1.25-.37,2.29-1.11,3.11-.74.82-1.84,1.33-3.31,1.55.73.43,1.33.89,1.81,1.4.48.51,1.12,1.42,1.92,2.72l2.04,3.26h-4.04l-2.44-3.64c-.87-1.3-1.46-2.12-1.78-2.46-.32-.34-.66-.57-1.02-.7-.36-.12-.92-.19-1.7-.19h-.68v6.98h-3.38ZM39.29,46.11h2.5c1.62,0,2.63-.07,3.04-.21.4-.14.72-.37.95-.71.23-.33.34-.75.34-1.25,0-.56-.15-1.02-.45-1.36-.3-.35-.72-.56-1.27-.66-.27-.04-1.1-.06-2.47-.06h-2.64v4.25Z"/><path class="cls-4" d="M52.78,55.77v-16.73h12.4v2.83h-9.03v3.71h8.4v2.82h-8.4v4.55h9.35v2.82h-12.72Z"/><path class="cls-4" d="M68.37,55.77v-16.73h12.4v2.83h-9.03v3.71h8.4v2.82h-8.4v4.55h9.35v2.82h-12.72Z"/><rect class="cls-8" x="366.45" y="18.37" width="46.52" height="74.43" rx="7.15" ry="7.15" transform="translate(33.74 -112.5) rotate(17.16)"/><rect class="cls-4" x="374.44" y="88.99" width="9.3" height="21.62" rx="3.98" ry="3.98" transform="translate(110.04 -185.3) rotate(31.91)"/><rect class="cls-4" x="393.34" y="86.13" width="9.3" height="23.47" rx="3.98" ry="3.98" transform="translate(-1.8 7.63) rotate(-1.1)"/><rect class="cls-4" x="367.55" y="39.05" width="7.82" height="24.01" rx="3.34" ry="3.34" transform="translate(173.07 369.22) rotate(-65.88)"/><rect class="cls-4" x="405.52" y="43.33" width="7.82" height="24.01" rx="3.34" ry="3.34" transform="translate(352.49 -353.88) rotate(74.38)"/><path class="cls-4" d="M405.49,58.57c-.57,2.08-2.73,3.31-4.81,2.74l-7.85-2.15-7.77-2.14c-2.07-.58-3.3-2.74-2.73-4.81.19-.66.53-1.24.97-1.7h7.39c.12,0,.24.01.35.03l.44.12s.02.01.04.01l11.23,3.08c2.07.57,3.3,2.74,2.73,4.81Z"/><path class="cls-4" d="M386.98,94.41l-.51-9.67.51,9.67c.13,2.7-2.08,4.99-4.85,4.88-2.44-.1-4.33-2.2-4.46-4.64l-.07-1.3-.62-11.9c-.03-.54.04-1.06.18-1.55.24-.81,1.03-1.33,1.87-1.33h12.64c1.12,0,2.19.48,2.92,1.33l4.58,5.23s.05.08.09.12l1.91,2.18c1.61,1.84,1.73,4.67.05,6.44-1.9,2.01-5.1,1.91-6.89-.12l-7.87-9"/><path class="cls-4" d="M392.84,52.65v21.29c0,1.18-.96,2.13-2.14,2.13h-11.57c-1.18,0-2.14-.95-2.14-2.13v-21.29c0-1.18.96-2.13,2.14-2.13h11.57c.12,0,.24.01.35.03l.44.12s.02.01.04.01c.76.32,1.3,1.09,1.3,1.96Z"/><path class="cls-4" d="M375.35,39.4h18.61v1.34c0,4.39-3.57,7.96-7.96,7.96h-2.68c-4.39,0-7.96-3.57-7.96-7.96v-1.34h0Z" transform="translate(5.54 -34.51) rotate(5.17)"/><path class="cls-4" d="M394.46,38.5c.07-4.82-3.57-8.96-8.45-9.4-5.12-.46-9.64,3.31-10.1,8.43l1.73.16,16.8,1.52,3.5.32.06-.7-3.54-.32Z"/><rect class="cls-7" x="673.97" y="14.86" width="10.52" height="31.55" rx="2.69" ry="2.69"/><path class="cls-7" d="M690.91,46.41h-4.09v45.43c0,3.95-3.2,7.15-7.15,7.15h-48.79c-3.95,0-7.16-3.2-7.16-7.15v-45.43h-4.09c-2.08,0-2.98-2.64-1.33-3.91l15.94-12.26,19.7-15.16c.78-.61,1.88-.61,2.66,0l19.7,15.16,15.94,12.26c1.66,1.27.76,3.91-1.33,3.91Z"/><path class="cls-7" d="M673.25,70.86l.3-.92c1.08-3.33,5.79-3.33,6.86,0l.3.92c.72,2.24,3.36,3.2,5.35,1.95l.82-.51c2.96-1.86,6.57,1.17,5.25,4.41l-.36.9c-.89,2.18.51,4.61,2.84,4.93l.96.13c3.47.48,4.28,5.12,1.19,6.76l-.86.45c-2.08,1.1-2.57,3.86-.99,5.6l.65.72c2.35,2.6-.01,6.68-3.43,5.94l-.95-.2c-2.3-.49-4.45,1.31-4.36,3.66l.04.97c.13,3.5-4.3,5.11-6.45,2.34l-.59-.76c-1.44-1.86-4.25-1.86-5.69,0l-.59.76c-2.15,2.76-6.58,1.15-6.45-2.35l.04-.97c.09-2.35-2.06-4.15-4.36-3.66l-.95.2c-3.42.73-5.78-3.35-3.43-5.94l.65-.72c1.58-1.74,1.09-4.5-.99-5.6l-.86-.45c-3.09-1.64-2.27-6.28,1.19-6.76l.96-.13c2.33-.32,3.73-2.75,2.85-4.93l-.36-.9c-1.32-3.24,2.29-6.27,5.26-4.41l.82.52c1.99,1.25,4.63.29,5.35-1.94Z"/><circle class="cls-7" cx="676.98" cy="88.88" r="12.4"/><polyline class="cls-9" points="669.74 87.43 675.53 93.22 684.21 84.54"/><path class="cls-4" d="M454.06,59.91v-18.4h5.56l3.34,12.55,3.3-12.55h5.57v18.4h-3.45v-14.49l-3.65,14.49h-3.58l-3.64-14.49v14.49h-3.45Z"/><path class="cls-4" d="M475.41,59.91v-18.4h3.71v18.4h-3.71Z"/><path class="cls-4" d="M482.66,59.91v-18.4h13.65v3.11h-9.93v4.08h9.24v3.1h-9.24v5.01h10.28v3.1h-14ZM485.68,38.82c0-.56.22-1.05.7-1.47.47-.42,1.09-.63,1.85-.63.52,0,1.23.18,2.12.55.64.2,1.11.3,1.41.3.51,0,.82-.29.92-.88h1.41c-.05,1.4-.87,2.1-2.46,2.1-.53,0-1.22-.18-2.08-.55-.74-.24-1.24-.36-1.49-.36-.54,0-.85.32-.95.95h-1.41ZM489.87,39.95l-1.38.93h-2.47l2.74-1.63h2.23l2.74,1.63h-2.47l-1.38-.93Z"/><path class="cls-4" d="M499.85,59.91v-18.4h3.62l7.53,12.29v-12.29h3.45v18.4h-3.73l-7.42-12v12h-3.45Z"/><path class="cls-4" d="M525.52,59.91v-18.4h5.96c2.26,0,3.73.09,4.42.28,1.05.28,1.94.88,2.65,1.8.71.92,1.07,2.12,1.07,3.58,0,1.13-.21,2.08-.62,2.85-.41.77-.93,1.37-1.56,1.81s-1.27.73-1.93.87c-.89.18-2.17.26-3.85.26h-2.42v6.94h-3.72ZM529.24,44.62v5.22h2.03c1.46,0,2.44-.1,2.94-.29.49-.19.88-.49,1.16-.9s.42-.89.42-1.43c0-.67-.2-1.22-.59-1.66-.39-.44-.89-.71-1.49-.82-.44-.08-1.33-.12-2.67-.12h-1.79Z"/><path class="cls-4" d="M542.68,59.91v-18.4h3.72v7.24h7.28v-7.24h3.72v18.4h-3.72v-8.05h-7.28v8.05h-3.72Z"/><path class="cls-4" d="M560.69,40.45l1.73-3.75h3.96l-3.45,3.75h-2.23ZM561.12,59.91v-18.4h3.71v18.4h-3.71Z"/><path class="cls-4" d="M455.88,90.76v-18.25h3.72v15.15h9.24v3.1h-12.96Z"/><path class="cls-4" d="M488.08,90.76h-4.04l-1.61-4.18h-7.36l-1.52,4.18h-3.94l7.17-18.4h3.93l7.37,18.4ZM475.47,70.75c-.24-.23-.43-.45-.55-.65h1.22c.18.21.45.37.8.49.54.17,1.08.25,1.62.25s1.11-.08,1.64-.25c.3-.1.57-.26.82-.49h1.22c-.26.47-.69.85-1.3,1.16-.64.32-1.44.48-2.37.48-.29,0-.57-.02-.83-.05-.99-.12-1.74-.43-2.26-.93ZM481.24,83.48l-2.54-6.83-2.49,6.83h5.02ZM477.04,69.67l1.52-2.05h3.95l-3.24,2.05h-2.23Z"/><path class="cls-4" d="M490.05,90.76v-18.4h5.96c2.26,0,3.73.09,4.42.28,1.05.28,1.94.88,2.65,1.8.71.92,1.07,2.12,1.07,3.58,0,1.13-.21,2.08-.62,2.85-.41.77-.93,1.37-1.56,1.81s-1.27.73-1.93.87c-.89.18-2.17.26-3.85.26h-2.42v6.94h-3.72ZM493.76,75.47v5.22h2.03c1.46,0,2.44-.1,2.94-.29.49-.19.88-.49,1.16-.9s.42-.89.42-1.43c0-.67-.2-1.22-.59-1.66-.39-.44-.89-.71-1.49-.82-.44-.08-1.33-.12-2.67-.12h-1.79Z"/><path class="cls-4" d="M513.87,72.36h6.78c1.56,0,2.74.12,3.54.36,1.09.33,2.02.9,2.79,1.73s1.35,1.82,1.74,2.99c.39,1.17.58,2.62.58,4.34,0,1.51-.22,2.88-.65,4.1s-1.06,2.23-1.9,3.04c-.64.61-1.51,1.09-2.6,1.44-.82.26-1.92.39-3.3.39h-6.98v-8.03h-1.91v-2.33h1.91v-8.03ZM517.57,75.47v4.92h3.94v2.33h-3.94v4.93h2.79c1.23,0,2.12-.1,2.66-.3.72-.25,1.27-.71,1.64-1.38.53-.95.79-2.39.79-4.33,0-1.38-.11-2.45-.33-3.2-.22-.75-.55-1.35-.98-1.81-.43-.46-.99-.78-1.69-.97-.54-.13-1.6-.2-3.2-.2h-1.68Z"/><path class="cls-4" d="M549.03,90.76h-4.04l-1.61-4.18h-7.36l-1.52,4.18h-3.94l7.17-18.4h3.93l7.37,18.4ZM536.43,70.75c-.24-.23-.43-.45-.55-.65h1.22c.18.21.45.37.8.49.54.17,1.08.25,1.62.25s1.11-.08,1.64-.25c.3-.1.57-.26.82-.49h1.22c-.26.47-.69.85-1.3,1.16-.64.32-1.44.48-2.37.48-.29,0-.57-.02-.83-.05-.99-.12-1.74-.43-2.26-.93ZM542.19,83.48l-2.54-6.83-2.49,6.83h5.02ZM537.95,95.79v-3.53h3.53v3.53h-3.53Z"/><path class="cls-4" d="M555.15,90.76v-15.29h-5.46v-3.11h14.62v3.11h-5.45v15.29h-3.72Z"/><path class="cls-4" d="M181.84,59.91v-18.4h5.56l3.34,12.55,3.3-12.55h5.57v18.4h-3.45v-14.49l-3.65,14.49h-3.58l-3.64-14.49v14.49h-3.45Z"/><path class="cls-4" d="M203.2,59.91v-18.4h3.71v18.4h-3.71Z"/><path class="cls-4" d="M210.45,59.91v-18.4h13.65v3.11h-9.93v4.08h9.24v3.1h-9.24v5.01h10.28v3.1h-14ZM213.46,38.82c0-.56.22-1.05.7-1.47.47-.42,1.09-.63,1.85-.63.52,0,1.23.18,2.12.55.64.2,1.11.3,1.41.3.51,0,.82-.29.92-.88h1.41c-.05,1.4-.87,2.1-2.46,2.1-.53,0-1.22-.18-2.08-.55-.74-.24-1.24-.36-1.49-.36-.54,0-.85.32-.95.95h-1.41ZM217.66,39.95l-1.38.93h-2.47l2.74-1.63h2.23l2.74,1.63h-2.47l-1.38-.93Z"/><path class="cls-4" d="M227.64,59.91v-18.4h3.62l7.53,12.29v-12.29h3.45v18.4h-3.73l-7.42-12v12h-3.45Z"/><path class="cls-4" d="M253.31,59.91v-18.4h5.96c2.26,0,3.73.09,4.42.28,1.05.28,1.94.88,2.65,1.8.71.92,1.07,2.12,1.07,3.58,0,1.13-.21,2.08-.62,2.85-.41.77-.93,1.37-1.56,1.81s-1.27.73-1.93.87c-.89.18-2.17.26-3.85.26h-2.42v6.94h-3.72ZM257.02,44.62v5.22h2.03c1.46,0,2.44-.1,2.94-.29.49-.19.88-.49,1.16-.9s.42-.89.42-1.43c0-.67-.2-1.22-.59-1.66-.39-.44-.89-.71-1.49-.82-.44-.08-1.33-.12-2.67-.12h-1.79Z"/><path class="cls-4" d="M270.47,59.91v-18.4h3.72v7.24h7.28v-7.24h3.72v18.4h-3.72v-8.05h-7.28v8.05h-3.72Z"/><path class="cls-4" d="M288.48,40.45l1.73-3.75h3.96l-3.45,3.75h-2.23ZM288.91,59.91v-18.4h3.71v18.4h-3.71Z"/><path class="cls-4" d="M173.32,83.99v-3.1h8.01v7.33c-.78.75-1.91,1.42-3.38,1.99-1.48.57-2.97.86-4.49.86-1.92,0-3.6-.4-5.03-1.21-1.43-.81-2.51-1.96-3.23-3.46s-1.08-3.14-1.08-4.9c0-1.92.4-3.62,1.21-5.11.8-1.49,1.98-2.63,3.53-3.43,1.18-.61,2.65-.92,4.41-.92,2.28,0,4.07.48,5.35,1.44,1.28.96,2.11,2.28,2.48,3.97l-3.69.69c-.26-.9-.75-1.62-1.46-2.14s-1.61-.79-2.68-.79c-1.62,0-2.92.51-3.87,1.54-.96,1.03-1.44,2.56-1.44,4.58,0,2.18.49,3.82,1.46,4.92.97,1.09,2.24,1.64,3.82,1.64.78,0,1.56-.15,2.34-.46.78-.31,1.45-.68,2.01-1.11v-2.33h-4.25Z"/><path class="cls-4" d="M184.64,90.76v-18.4h3.71v18.4h-3.71Z"/><path class="cls-4" d="M208.49,90.76h-4.04l-1.61-4.18h-7.36l-1.52,4.18h-3.94l7.17-18.4h3.93l7.37,18.4ZM201.65,83.48l-2.54-6.83-2.49,6.83h5.02Z"/><path class="cls-4" d="M209.71,81.67c0-1.88.28-3.45.84-4.72.42-.94.99-1.78,1.71-2.52.72-.75,1.52-1.3,2.38-1.66,1.15-.49,2.47-.73,3.97-.73,2.71,0,4.88.84,6.51,2.52,1.63,1.68,2.44,4.02,2.44,7.02s-.81,5.29-2.42,6.97-3.77,2.52-6.48,2.52-4.91-.83-6.53-2.5-2.42-3.97-2.42-6.9ZM213.54,81.54c0,2.08.48,3.66,1.44,4.74.96,1.08,2.18,1.61,3.67,1.61s2.7-.53,3.65-1.6c.95-1.07,1.42-2.67,1.42-4.8s-.46-3.68-1.39-4.72c-.92-1.04-2.15-1.56-3.68-1.56s-2.77.53-3.7,1.58c-.94,1.05-1.41,2.63-1.41,4.75Z"/><path class="cls-4" d="M237.62,90.76v-18.4h3.72v7.24h7.28v-7.24h3.72v18.4h-3.72v-8.05h-7.28v8.05h-3.72Z"/><path class="cls-4" d="M272.76,90.76h-4.04l-1.61-4.18h-7.36l-1.52,4.18h-3.94l7.17-18.4h3.93l7.37,18.4ZM265.48,71.3h-2.22l-3.46-3.75h3.95l1.73,3.75ZM265.92,83.48l-2.54-6.83-2.49,6.83h5.02Z"/><path class="cls-4" d="M274.77,90.76v-18.4h3.62l7.53,12.29v-12.29h3.45v18.4h-3.73l-7.42-12v12h-3.45Z"/><path class="cls-4" d="M301.86,83.99v-3.1h8.01v7.33c-.78.75-1.91,1.42-3.38,1.99-1.48.57-2.97.86-4.49.86-1.92,0-3.6-.4-5.03-1.21-1.43-.81-2.51-1.96-3.23-3.46s-1.08-3.14-1.08-4.9c0-1.92.4-3.62,1.21-5.11.8-1.49,1.98-2.63,3.53-3.43,1.18-.61,2.65-.92,4.41-.92,2.28,0,4.07.48,5.35,1.44,1.28.96,2.11,2.28,2.48,3.97l-3.69.69c-.26-.9-.75-1.62-1.46-2.14s-1.61-.79-2.68-.79c-1.62,0-2.92.51-3.87,1.54-.96,1.03-1.44,2.56-1.44,4.58,0,2.18.49,3.82,1.46,4.92.97,1.09,2.24,1.64,3.82,1.64.78,0,1.56-.15,2.34-.46.78-.31,1.45-.68,2.01-1.11v-2.33h-4.25Z"/><path class="cls-4" d="M736.47,41.51h7.36c1.46,0,2.54.06,3.26.18.72.12,1.36.38,1.92.76.57.38,1.04.9,1.41,1.54.38.64.57,1.36.57,2.15,0,.86-.23,1.65-.7,2.37-.46.72-1.09,1.26-1.89,1.62,1.12.33,1.98.88,2.59,1.67.6.79.9,1.71.9,2.77,0,.84-.19,1.65-.58,2.44-.39.79-.92,1.42-1.59,1.9s-1.5.76-2.49.87c-.62.07-2.11.11-4.48.13h-6.26v-18.4ZM740.18,44.57v4.26h2.44c1.45,0,2.35-.02,2.7-.06.64-.08,1.14-.29,1.5-.66s.55-.84.55-1.44-.16-1.03-.47-1.39c-.31-.36-.78-.57-1.4-.65-.37-.04-1.43-.06-3.18-.06h-2.13ZM740.18,51.89v4.92h3.44c1.34,0,2.19-.04,2.55-.11.55-.1,1-.34,1.35-.73.35-.39.52-.91.52-1.56,0-.55-.13-1.02-.4-1.41-.27-.38-.65-.67-1.16-.84-.51-.18-1.6-.26-3.29-.26h-3Z"/><path class="cls-4" d="M771.61,59.91h-4.04l-1.61-4.18h-7.36l-1.52,4.18h-3.94l7.17-18.4h3.93l7.37,18.4ZM764.77,52.63l-2.54-6.83-2.49,6.83h5.02ZM762.5,39.31c.44-.11.67-.3.68-.58,0-.19-.11-.36-.35-.49-.35-.19-.91-.29-1.67-.29-.26,0-.65.02-1.18.05l-.14-1.28c.33-.07.93-.1,1.81-.09,1.03,0,1.87.18,2.52.5.72.35,1.09.84,1.1,1.47.03.87-.73,1.4-2.28,1.59v.63h-1.41v-1.38c.48-.05.78-.1.92-.14Z"/><path class="cls-4" d="M772.83,50.82c0-1.88.28-3.45.84-4.72.42-.94.99-1.78,1.71-2.52.72-.75,1.52-1.3,2.38-1.66,1.15-.49,2.47-.73,3.97-.73,2.71,0,4.88.84,6.51,2.52,1.63,1.68,2.44,4.02,2.44,7.02s-.81,5.29-2.42,6.97-3.77,2.52-6.48,2.52-4.91-.83-6.53-2.5-2.42-3.97-2.42-6.9ZM776.66,50.69c0,2.08.48,3.66,1.44,4.74.96,1.08,2.18,1.61,3.67,1.61s2.7-.53,3.65-1.6c.95-1.07,1.42-2.67,1.42-4.8s-.46-3.68-1.39-4.72c-.92-1.04-2.15-1.56-3.68-1.56s-2.77.53-3.7,1.58c-.94,1.05-1.41,2.63-1.41,4.75Z"/><path class="cls-4" d="M800.74,59.91v-18.4h3.72v7.24h7.28v-7.24h3.72v18.4h-3.72v-8.05h-7.28v8.05h-3.72Z"/><path class="cls-4" d="M835.88,59.91h-4.04l-1.61-4.18h-7.36l-1.52,4.18h-3.94l7.17-18.4h3.93l7.37,18.4ZM828.6,40.45h-2.22l-3.46-3.75h3.95l1.73,3.75ZM829.04,52.63l-2.54-6.83-2.49,6.83h5.02Z"/><path class="cls-4" d="M837.89,59.91v-18.4h3.62l7.53,12.29v-12.29h3.45v18.4h-3.73l-7.42-12v12h-3.45Z"/><path class="cls-4" d="M856.43,59.91v-18.4h3.72v7.24h7.28v-7.24h3.72v18.4h-3.72v-8.05h-7.28v8.05h-3.72Z"/><path class="cls-4" d="M757.74,90.76v-15.29h-5.46v-3.11h14.62v3.11h-5.45v15.29h-3.72Z"/><path class="cls-4" d="M785.89,90.76h-4.04l-1.61-4.18h-7.36l-1.52,4.18h-3.94l7.17-18.4h3.93l7.37,18.4ZM779.05,83.48l-2.54-6.83-2.49,6.83h5.02ZM774.81,95.79v-3.53h3.53v3.53h-3.53Z"/><path class="cls-4" d="M787.75,90.76v-18.4h3.71v18.4h-3.71Z"/><path class="cls-4" d="M802.19,90.76v-18.4h3.62l7.53,12.29v-12.29h3.45v18.4h-3.73l-7.42-12v12h-3.45Z"/><path class="cls-4" d="M820.73,90.76v-18.4h3.72v7.24h7.28v-7.24h3.72v18.4h-3.72v-8.05h-7.28v8.05h-3.72Z"/><path class="cls-4" d="M855.88,90.76h-4.04l-1.61-4.18h-7.36l-1.52,4.18h-3.94l7.17-18.4h3.93l7.37,18.4ZM848.59,71.3h-2.22l-3.46-3.75h3.95l1.73,3.75ZM849.03,83.48l-2.54-6.83-2.49,6.83h5.02Z"/></svg>